# xmcd
#
# Track frame offsets:
#	150
#	17780
#	36130
#	51452
#	68892
#	85210
#	102272
#	118080
#	132535
#	154115
#	172600
#	189337
#	204080
#	223965
#
# Disc length: 3198 seconds
#
# Revision: 0
# Processed by: cddbd v1.5.1PL2 Copyright (c) Steve Scherf et al.
# Submitted via: dBpowerAMP V4.0
#
DISCID=c20c7c0e
DTITLE=Charlie Landsborough - Still can't say goodbye
DYEAR=1900
DGENRE=Country
TTITLE0=One true love
TTITLE1=Why worry
TTITLE2=Muddy roads
TTITLE3=What colour is the Wind
TTITLE4=Blue Umbrella
TTITLE5=I still can't say goodbye
TTITLE6=I've been rained on too
TTITLE7=Angles with one wing
TTITLE8=Like I used to do
TTITLE9=My forever friend
TTITLE10=Five fingers
TTITLE11=It'll be her
TTITLE12=Time to learn
TTITLE13=When I'm dead and gone
EXTD=Charlie Landsborough\nStill can't say goodbye
EXTT0=
EXTT1=
EXTT2=
EXTT3=
EXTT4=
EXTT5=
EXTT6=
EXTT7=
EXTT8=
EXTT9=
EXTT10=
EXTT11=
EXTT12=
EXTT13=
PLAYORDER=
